<?xml version="1.0" encoding="utf-8"?>
<!-- Generator: Adobe Illustrator 25.3.0, SVG Export Plug-In . SVG Version: 6.00 Build 0)  -->
<svg version="1.1" id="Layer_1" xmlns="http://www.w3.org/2000/svg" xmlns:xlink="http://www.w3.org/1999/xlink" x="0px" y="0px"
	 viewBox="0 0 32 21" style="enable-background:new 0 0 32 21;" xml:space="preserve">
<style type="text/css">
	.st0{fill:#D1D3D4;}
</style>
<g>
	<g>
		<path class="st0" d="M16,21c-0.39,0-9.61-0.01-12.05-0.61c-1.6-0.39-2.86-1.55-3.29-3.01C0.01,15.14,0,10.69,0,10.5
			c0-0.19,0.01-4.64,0.66-6.88C1.09,2.15,2.35,1,3.95,0.61C6.39,0.01,15.61,0,16,0c0.39,0,9.61,0.01,12.05,0.61
			c1.6,0.39,2.86,1.55,3.29,3.01l0,0C31.99,5.86,32,10.31,32,10.5c0,0.19-0.01,4.64-0.66,6.88c-0.43,1.46-1.69,2.62-3.29,3.01
			C25.61,20.99,16.39,21,16,21z M16,1.58c-2.6,0-9.76,0.1-11.6,0.55C3.39,2.37,2.6,3.1,2.33,4.02c-0.6,2.04-0.6,6.43-0.6,6.48
			s0.01,4.44,0.6,6.48c0.27,0.92,1.06,1.65,2.07,1.9c1.85,0.45,9,0.55,11.6,0.55s9.76-0.1,11.6-0.55c1.01-0.25,1.8-0.97,2.07-1.89
			c0.6-2.04,0.6-6.43,0.6-6.48c0-0.04-0.01-4.44-0.6-6.48l0,0C29.4,3.1,28.61,2.37,27.6,2.13C25.76,1.67,18.6,1.58,16,1.58z"/>
	</g>
	<polygon class="st0" points="12.9,14.6 12.9,6.4 20.82,10.5 	"/>
</g>
</svg>
