<?xml version="1.0" encoding="utf-8"?>
<!-- Generator: Adobe Illustrator 25.3.0, SVG Export Plug-In . SVG Version: 6.00 Build 0)  -->
<svg version="1.1" id="Layer_1" xmlns="http://www.w3.org/2000/svg" xmlns:xlink="http://www.w3.org/1999/xlink" x="0px" y="0px"
	 viewBox="0 0 32 32" style="enable-background:new 0 0 32 32;" xml:space="preserve">
<style type="text/css">
	.st0{fill:#D1D3D4;}
</style>
<path class="st0" d="M20.52,31.39c0-3.23,0-6.37,0-9.67c1.48,0,2.93,0,4.53,0c0.17-1.73,0.33-3.34,0.51-5.09c-1.71,0-3.32,0-5.07,0
	c0-1.52-0.06-2.91,0.02-4.28c0.06-0.96,0.7-1.48,1.69-1.49c1.07-0.01,2.13,0,3.26,0c0-1.58,0-3.03,0-4.52
	c-2.19,0-4.35-0.19-6.45,0.05c-2.34,0.27-4.05,2.56-4.1,5.04c-0.04,1.67-0.01,3.34-0.01,5.14c-1.49,0-2.86,0-4.3,0
	c0,1.75,0,3.36,0,5.08c1.42,0,2.76,0,4.19,0c0,3.52,0,6.92,0,10.33C9.25,32.1,1.34,27.2,0.15,18.5C-1.1,9.38,4.91,1.47,13.95,0.17
	c8.16-1.17,16.52,4.84,17.79,12.81C33.09,21.47,27.91,30.06,20.52,31.39z"/>
</svg>
