<?xml version="1.0" encoding="utf-8"?>
<!-- Generator: Adobe Illustrator 25.3.0, SVG Export Plug-In . SVG Version: 6.00 Build 0)  -->
<svg version="1.1" id="Layer_1" xmlns="http://www.w3.org/2000/svg" xmlns:xlink="http://www.w3.org/1999/xlink" x="0px" y="0px"
	 viewBox="0 0 31 30.97" style="enable-background:new 0 0 31 30.97;" xml:space="preserve">
<style type="text/css">
	.st0{fill:#D1D3D4;}
</style>
<g>
	<path class="st0" d="M0,30.97c0.86-2.57,1.67-5.01,2.5-7.43c0.15-0.43,0.12-0.75-0.1-1.16C-2.56,13.29,2.79,2.13,13,0.25
		c8.08-1.48,15.88,3.78,17.58,11.86c1.68,8-3.7,16.22-11.69,17.8c-3.52,0.7-6.9,0.29-10.13-1.33c-0.23-0.12-0.58-0.13-0.83-0.06
		c-2.45,0.75-4.89,1.53-7.33,2.29C0.45,30.86,0.29,30.89,0,30.97z M3.89,27.18c1.52-0.48,2.9-0.89,4.27-1.37
		c0.42-0.15,0.72-0.09,1.09,0.13c2.9,1.7,6.01,2.18,9.29,1.46c6.77-1.49,11.11-8.5,9.44-15.21C25.68,2.97,14.62-0.57,7.41,5.61
		C2.68,9.67,1.66,16.67,5.07,21.9c0.3,0.46,0.35,0.83,0.16,1.34C4.77,24.49,4.36,25.77,3.89,27.18z"/>
	<path class="st0" d="M8.04,11.39c0.08-1.02,0.47-1.86,1.03-2.66c0.63-0.9,1.5-1.13,2.5-0.91c0.25,0.05,0.54,0.36,0.64,0.62
		c0.41,0.98,0.82,1.97,1.09,2.99c0.09,0.36-0.15,0.9-0.4,1.22c-0.98,1.27-1,1.25-0.07,2.61c1.11,1.63,2.59,2.81,4.37,3.64
		c0.43,0.2,0.74,0.13,1.03-0.23c0.33-0.42,0.71-0.8,1.04-1.22c0.27-0.35,0.57-0.44,0.97-0.24c1,0.52,2.02,1.03,3,1.59
		c0.18,0.1,0.31,0.45,0.31,0.68c-0.01,1.7-1.14,2.62-2.78,3.07c-0.98,0.27-1.86,0-2.78-0.29c-4.55-1.45-7.47-4.63-9.43-8.83
		C8.26,12.82,8.2,12.08,8.04,11.39z"/>
</g>
</svg>
