<?xml version="1.0" encoding="utf-8"?>
<!-- Generator: Adobe Illustrator 25.3.0, SVG Export Plug-In . SVG Version: 6.00 Build 0)  -->
<svg version="1.1" id="Layer_1" xmlns="http://www.w3.org/2000/svg" xmlns:xlink="http://www.w3.org/1999/xlink" x="0px" y="0px"
	 viewBox="0 0 30.18 21.17" style="enable-background:new 0 0 30.18 21.17;" xml:space="preserve">
<style type="text/css">
	.st0{fill:#D1D3D4;}
</style>
<path class="st0" d="M0.08,2.29C0.24,1.63,0.51,1.04,1.05,0.6C1.53,0.22,2.06,0.02,2.67,0C2.93-0.01,3.2,0,3.46,0
	c7.96,0,15.92,0,23.88,0c1.14,0,2.01,0.47,2.51,1.5c0.17,0.35,0.26,0.77,0.27,1.15c0.02,5.27,0.02,10.54,0.01,15.82
	c0,1.5-1.16,2.65-2.67,2.65c-8.23,0.01-16.47,0-24.7,0c-1.28,0-2.31-0.82-2.62-2.06c-0.02-0.07-0.04-0.15-0.06-0.22
	C0.08,13.32,0.08,7.81,0.08,2.29z M3.12,1.77C3.2,1.86,3.24,1.9,3.28,1.94c3.29,3.28,6.58,6.55,9.88,9.82
	c0.18,0.18,0.38,0.35,0.6,0.47c1.13,0.64,2.34,0.47,3.29-0.47c3.29-3.27,6.57-6.54,9.86-9.8c0.05-0.05,0.1-0.11,0.17-0.19
	C19.08,1.77,11.13,1.77,3.12,1.77z M3.26,19.34c7.87,0,15.82,0,23.62,0c-2.41-2.46-4.88-4.99-7.43-7.59
	c-0.5,0.53-0.94,1.09-1.46,1.54c-1.27,1.1-2.73,1.36-4.32,0.85c-0.7-0.22-1.27-0.63-1.78-1.14c-0.39-0.39-0.78-0.79-1.21-1.23
	C8.17,14.34,5.7,16.86,3.26,19.34z M9.27,10.61C6.83,8.13,4.35,5.6,1.86,3.07c0,5,0,9.99,0,14.98c0.02,0.01,0.04,0.03,0.07,0.04
	C4.4,15.58,6.87,13.06,9.27,10.61z M28.35,3.02c-2.52,2.56-5,5.09-7.5,7.63c2.45,2.43,4.96,4.93,7.5,7.45
	C28.35,13.05,28.35,8.07,28.35,3.02z"/>
</svg>
