<?xml version="1.0" encoding="utf-8"?>
<!-- Generator: Adobe Illustrator 25.3.0, SVG Export Plug-In . SVG Version: 6.00 Build 0)  -->
<svg version="1.1" id="Layer_1" xmlns="http://www.w3.org/2000/svg" xmlns:xlink="http://www.w3.org/1999/xlink" x="0px" y="0px"
	 viewBox="0 0 32 32" style="enable-background:new 0 0 32 32;" xml:space="preserve">
<style type="text/css">
	.st0{fill:#D1D3D4;}
</style>
<g>
	<path class="st0" d="M0,15.99c0-2.29,0-4.58,0-6.88c0-3.5,2.31-6.96,5.54-8.31C6.78,0.29,8.05,0.03,9.4,0.03
		c4.4,0.02,8.8,0.04,13.2,0c4.54-0.04,8.54,3.34,9.21,7.82c0.07,0.48,0.12,0.96,0.12,1.44c0.01,4.51,0.07,9.03-0.02,13.54
		c-0.07,3.65-1.83,6.36-5.04,8.1c-1.37,0.74-2.86,1.04-4.42,1.03c-4.41-0.01-8.82,0-13.23,0c-4.28,0-8.11-3.07-9-7.25
		c-0.14-0.65-0.2-1.32-0.21-1.98C-0.01,20.49,0,18.24,0,15.99z M15.98,2.5c-2.18,0-4.35,0-6.53,0C8.46,2.5,7.5,2.64,6.6,3.05
		c-2.72,1.27-4.1,3.43-4.12,6.42c-0.03,4.35-0.01,8.71,0,13.06c0,0.47,0.03,0.95,0.12,1.41c0.68,3.35,3.39,5.55,6.81,5.55
		c4.39,0,8.78,0,13.16,0c0.42,0,0.85-0.02,1.27-0.1c3.34-0.64,5.61-3.35,5.62-6.74c0.01-4.43,0-8.87,0-13.3
		c0-1.15-0.24-2.24-0.81-3.24c-1.34-2.38-3.41-3.57-6.14-3.59C20.33,2.49,18.16,2.5,15.98,2.5z"/>
	<path class="st0" d="M15.96,24.59c-4.57,0.03-8.62-3.7-8.6-8.64c0.02-4.74,3.82-8.53,8.54-8.57c4.97-0.03,8.71,4.05,8.67,8.68
		C24.53,20.75,20.68,24.59,15.96,24.59z M9.85,15.97c-0.07,3.43,2.8,6.08,5.97,6.15c3.48,0.07,6.21-2.8,6.26-6
		c0.06-3.36-2.69-6.21-6.07-6.24C12.62,9.85,9.81,12.64,9.85,15.97z"/>
	<path class="st0" d="M25.15,4.94c1.03,0,1.86,0.8,1.87,1.82c0.01,1.03-0.82,1.88-1.84,1.89C24.16,8.66,23.3,7.8,23.3,6.79
		C23.31,5.78,24.14,4.95,25.15,4.94z"/>
</g>
</svg>
