<?xml version="1.0" encoding="utf-8"?>
<!-- Generator: Adobe Illustrator 25.3.0, SVG Export Plug-In . SVG Version: 6.00 Build 0)  -->
<svg version="1.1" id="Layer_1" xmlns="http://www.w3.org/2000/svg" xmlns:xlink="http://www.w3.org/1999/xlink" x="0px" y="0px"
	 viewBox="0 0 27.89 32" style="enable-background:new 0 0 27.89 32;" xml:space="preserve">
<style type="text/css">
	.st0{fill:#D1D3D4;}
</style>
<path class="st0" d="M20.18,0.06c0.5,0.2,0.7,0.58,0.72,1.11c0.08,2.93,2.22,5.26,4.89,5.76c0.34,0.07,0.7,0.09,1.05,0.1
	c0.68,0.03,1.05,0.4,1.05,1.08c0,1.59,0,3.17,0,4.76c0,0.67-0.39,1.06-1.07,1.05c-1.98-0.03-3.86-0.47-5.63-1.35
	c-0.08-0.04-0.17-0.08-0.31-0.15c0,0.15,0,0.27,0,0.39c0,3,0.03,6-0.02,8.99c-0.06,3-1.26,5.52-3.51,7.48
	c-2.96,2.57-6.4,3.32-10.12,2.1c-3.78-1.24-6.16-3.92-6.99-7.81c-1.24-5.79,2.69-11.44,8.53-12.38c0.54-0.09,1.09-0.12,1.64-0.14
	c0.58-0.02,0.99,0.38,0.99,0.96c0.01,1.64,0.01,3.28,0,4.92c0,0.59-0.38,0.94-0.98,0.98c-1.76,0.1-3.09,1.19-3.44,2.84
	c-0.4,1.86,0.78,3.74,2.63,4.19c1.89,0.46,3.82-0.69,4.28-2.56c0.09-0.37,0.13-0.76,0.13-1.14c0.01-6.67,0.01-13.34,0-20.01
	c0-0.56,0.18-0.96,0.7-1.19C16.53,0.06,18.35,0.06,20.18,0.06z M15.88,1.94c0,0.17,0,0.3,0,0.44c0,6.36,0,12.72,0,19.07
	c0,3.3-2.77,5.78-6.05,5.44C7.16,26.61,5.06,24.32,5,21.62c-0.06-2.57,1.7-4.84,4.21-5.42c0.23-0.05,0.3-0.13,0.3-0.36
	c-0.01-0.85,0-1.7-0.01-2.55c0-0.09-0.01-0.18-0.02-0.3c-0.17,0.03-0.31,0.04-0.45,0.07c-4.94,0.8-8.17,5.8-6.86,10.62
	c1.23,4.54,5.71,7.2,10.32,6.13c3.69-0.86,6.49-4.33,6.51-8.11c0.02-3.59,0.01-7.18,0-10.77c0-0.44,0.11-0.81,0.52-1.02
	c0.41-0.21,0.77-0.09,1.13,0.17c0.97,0.69,2.03,1.21,3.18,1.52c0.7,0.19,1.43,0.31,2.12,0.46c0.04-0.09,0.06-0.11,0.06-0.13
	c0-0.95,0-1.91,0.01-2.86c0-0.2-0.12-0.21-0.26-0.23C22.46,8.22,20.3,6.3,19.3,3.1c-0.12-0.38-0.18-0.78-0.27-1.16
	C17.98,1.94,16.95,1.94,15.88,1.94z"/>
</svg>
